<svg width="24" height="24" fill="none" xmlns="http://www.w3.org/2000/svg"><path fill-rule="evenodd" clip-rule="evenodd" d="M18.375 4.25a1.376 1.376 0 11-.001 2.751 1.376 1.376 0 01.001-2.751zM12 8c-2.206 0-4 1.794-4 4s1.794 4 4 4 4-1.794 4-4-1.794-4-4-4zm0 10c-3.308 0-6-2.691-6-6s2.692-6 6-6 6 2.691 6 6-2.692 6-6 6zM6.5 2A4.505 4.505 0 002 6.5v11C2 19.981 4.019 22 6.5 22h11c2.481 0 4.5-2.019 4.5-4.5v-11C22 4.019 19.981 2 17.5 2h-11zm11 22h-11A6.507 6.507 0 010 17.5v-11C0 2.915 2.916 0 6.5 0h11C21.084 0 24 2.915 24 6.5v11c0 3.585-2.916 6.5-6.5 6.5z" fill="#fff"/></svg>