<svg width="120" height="37" fill="none" xmlns="http://www.w3.org/2000/svg"><g fill-rule="evenodd" clip-rule="evenodd"><path d="M77.288 8.881v15.107H69.91l-6.53-10.34v10.34h-4.992V8.88h6.906l7.005 10.31V8.881h4.99zm7.039 11.838V18.19h7.106v-3.388h-7.106v-2.627h8.084V8.881H79.863v15.107H92.43v-3.27h-8.102zm20.318-3.457c2.956.072 3.403-3.196 3.403-4.737 0-1.823-1.073-3.644-3.069-3.644H94.876v15.107h4.53l.022-11.863s4.298-.615 4.44 1.199c.256 3.357-3.665 2.301-3.665 2.301v1.745l13.851 17.297h5.215l-14.624-17.405zM28.898 23.99h5.437V8.881h-5.437v15.107zM55.81 8.881v15.107h-7.377L41.899 13.69v10.297h-4.99V8.88h6.9l7.01 10.35V8.881h4.991zM0 .13l6.068 23.858h7.99l.296-13.798 3.553 13.798h8.416V5.236h-4.771v12.972l-4.09-12.972H9.62l-.149 12.828L4.737.131H0z" fill="#0067B3"/><path d="M29.376 28.97h1.822c.83 0 1.432.116 1.807.35.375.235.563.608.563 1.12 0 .347-.082.632-.246.854a.985.985 0 01-.655.402v.04c.37.081.639.235.803.46.164.226.246.525.246.899 0 .53-.193.943-.579 1.24-.385.297-.91.445-1.571.445h-2.19v-5.81zm1.241 2.3h.72c.337 0 .58-.051.731-.155.151-.103.227-.274.227-.512 0-.223-.082-.383-.247-.48-.164-.096-.423-.144-.778-.144h-.653v1.291zm0 .978v1.515h.809c.341 0 .594-.066.756-.195.163-.13.245-.329.245-.596 0-.483-.347-.724-1.041-.724h-.769zm4.12-3.06c0-.395.221-.592.664-.592.443 0 .665.197.665.592 0 .188-.056.334-.166.439-.111.105-.277.157-.499.157-.443 0-.664-.199-.664-.596zm1.273 5.592h-1.221v-4.444h1.22v4.444zm2.502-4.444v1.71h1.705v-1.71h1.221v4.444h-1.22v-1.832h-1.706v1.832H37.29v-4.444h1.22zm5.428 0v1.71h1.706v-1.71h1.22v4.444h-1.22v-1.832H43.94v1.832h-1.22v-4.444h1.22zm6.061.78c-.259 0-.462.08-.608.244-.147.163-.231.394-.252.693h1.713c-.005-.3-.084-.53-.236-.693-.152-.163-.358-.245-.617-.245zm.172 3.743c-.72 0-1.283-.197-1.689-.592-.406-.395-.608-.954-.608-1.677 0-.745.187-1.32.562-1.727.375-.407.893-.61 1.555-.61.633 0 1.125.179 1.477.536.353.358.529.852.529 1.483v.588h-2.887c.014.345.117.614.309.807.192.194.462.29.808.29a3.377 3.377 0 001.518-.35v.938a2.879 2.879 0 01-.685.237 4.328 4.328 0 01-.889.077zm5.277 0c-.526 0-.938-.189-1.237-.568h-.064c.042.371.064.586.064.644v1.8h-1.221v-6.399h.992l.173.577h.056c.285-.44.708-.66 1.269-.66.528 0 .942.203 1.24.608.3.405.45.968.45 1.69 0 .474-.07.886-.211 1.235-.14.35-.34.616-.599.8a1.542 1.542 0 01-.912.273zm-.36-3.636c-.302 0-.522.092-.661.276-.139.184-.211.488-.216.912v.131c0 .477.071.819.214 1.026.143.206.369.31.678.31.548 0 .821-.448.821-1.344 0-.437-.067-.765-.202-.983-.135-.219-.346-.328-.635-.328zm11.028 3.557l-.424-1.383H63.56l-.424 1.383h-1.337l2.066-5.835h1.517l2.074 5.835h-1.338zm-.72-2.417a397.624 397.624 0 01-.663-2.126 5.922 5.922 0 01-.106-.39c-.088.34-.34 1.178-.756 2.516h1.525zm6.83-.862a.882.882 0 01-.227.61c-.15.168-.373.276-.666.324v.032c.317.037.569.145.754.324a.88.88 0 01.279.661c0 .432-.171.762-.513.988-.341.227-.83.34-1.465.34h-2.294v-4.444h2.294c.614 0 1.074.099 1.38.296.305.198.458.487.458.869zm-1.125 1.888c0-.175-.068-.302-.205-.38-.136-.078-.34-.117-.612-.117h-.969v1.05h.993c.259 0 .456-.049.59-.146a.472.472 0 00.203-.407zm-.112-1.793c0-.27-.217-.405-.649-.405h-1.025v.878h.885c.259 0 .455-.037.588-.111.134-.074.2-.195.2-.362zm6.049-1.26v.91h-1.466v3.534h-1.22v-3.534h-1.47v-.91h4.156zm1.805 2.214c0 .44.073.773.218.998.146.225.382.338.71.338.326 0 .56-.112.703-.336.143-.224.215-.557.215-1 0-.44-.073-.77-.217-.99-.144-.22-.38-.33-.708-.33-.326 0-.56.11-.705.328-.144.22-.216.55-.216.992zm3.094 0c0 .724-.192 1.29-.576 1.697-.384.408-.92.612-1.605.612-.43 0-.809-.093-1.137-.28a1.87 1.87 0 01-.757-.805c-.176-.35-.264-.757-.264-1.224 0-.726.19-1.29.572-1.693.382-.403.919-.604 1.61-.604.43 0 .808.093 1.137.278.328.186.58.452.756.799.177.347.264.754.264 1.22zm6.65 2.23h-1.14v-3.502l-.065.247c-.144.559-.273.982-.388 1.268l-.793 1.987h-.869l-.804-2.003a10.27 10.27 0 01-.369-1.228l-.076-.27v3.501h-1.137v-4.444h1.682l.768 1.896c.08.204.154.439.223.704.068.265.114.491.138.68.088-.398.156-.684.206-.857.05-.174.103-.333.162-.48.059-.145.324-.793.797-1.943h1.665v4.444zm2.254-2.23c0 .44.073.773.218.998.145.225.382.338.71.338.326 0 .56-.112.703-.336.143-.224.214-.557.214-1 0-.44-.072-.77-.216-.99-.144-.22-.38-.33-.708-.33-.326 0-.56.11-.705.328-.144.22-.216.55-.216.992zm3.094 0c0 .724-.192 1.29-.576 1.697-.384.408-.92.612-1.605.612-.43 0-.809-.093-1.137-.28a1.87 1.87 0 01-.757-.805c-.176-.35-.264-.757-.264-1.224 0-.726.19-1.29.572-1.693.382-.403.918-.604 1.61-.604.43 0 .808.093 1.137.278.328.186.58.452.756.799.176.347.264.754.264 1.22zm4.712-2.214v.91h-1.465v3.534h-1.22v-3.534h-1.47v-.91h4.155zm.781-1.148c0-.395.221-.592.665-.592.443 0 .664.197.664.592 0 .188-.055.334-.166.439-.111.105-.277.157-.498.157-.444 0-.665-.199-.665-.596zm1.273 5.592h-1.221v-4.444h1.221v4.444zm5.412-3.28a.881.881 0 01-.226.611c-.151.168-.373.276-.666.324v.032c.317.037.569.145.754.324a.88.88 0 01.279.661c0 .432-.171.762-.513.988-.341.227-.83.34-1.465.34h-2.294v-4.444h2.294c.614 0 1.074.099 1.379.296.306.198.458.487.458.869zm-1.124 1.889c0-.175-.069-.302-.205-.38-.136-.078-.34-.117-.612-.117h-.969v1.05h.993c.259 0 .456-.049.59-.146a.473.473 0 00.203-.407zm-.113-1.793c0-.27-.216-.405-.648-.405h-1.025v.878h.885c.259 0 .455-.037.588-.111.134-.074.2-.195.2-.362z" fill="#000" fill-opacity=".7"/></g></svg>