<svg width="200" height="64" fill="none" xmlns="http://www.w3.org/2000/svg"><path fill-rule="evenodd" clip-rule="evenodd" d="M100.312 29.192c1.239-.159 2.421-.352 3.332-1.146.934-.815 1.347-1.998 1.511-3.227.266-2.061-.268-4.23-2.064-5.278-1.156-.677-2.639-.806-4.14-.806-.205.113-.605-.044-.772.137-.223 0-.64-.013-.783.142-.104 0-.208.005-.274.08-.672 0-1.564.549-2.04.992-.176.166-.293.405-.51.526 0 .195-.272.601-.422.719 0 .08-.027.143-.08.192 0 .11-.063.236-.137.303 0 .139-.05.322-.144.416 0 .182-.019.51-.136.638l-.05 1.053c.01.707.157 1.403.348 2.038.78 2.626 3.618 3.573 6.361 3.221zm4.464 11.852c2.158-2.37 1.87-7.54-1.25-8.977-1.461-.672-3.087-.7-4.93-.7-.226.192-.718.008-.92.223-.172 0-.446.017-.554.136-.138 0-.354.036-.441.137-.193 0-.5.131-.616.278-.334 0-1.128.655-1.33.936-.176.245-.338.614-.585.799 0 .147-.117.36-.217.446 0 .122-.052.26-.143.335 0 .148-.036.339-.137.44 0 .175-.022.438-.137.551 0 .581-.084 1.191-.056 1.802.052 1.087.4 2.271 1 3.098a4.89 4.89 0 001.543 1.406c.47.265 1.001.378 1.53.521 2.313.606 5.68.302 7.243-1.431z" fill="#000" fill-opacity=".7"/><path fill-rule="evenodd" clip-rule="evenodd" d="M193.181 6.785c-.569.255-1.849.766-2.069.836-.143.051-1.161.061-1.33.057-.23.006-1.817.022-2.482.022-.268.01-5.101.137-6.744.137-1.827 0-3.62.042-5.44.042-.407 0-2.485.033-2.607.046h-9.488l-.665.026-.416.026h-5.02c-.382 0-2.921.075-4.053.14-1.563.13-3.868.324-3.968.33-.306 0-.917.115-1.009-.224-.097-.363.658-.534.895-.579 2.796-.548 5.6-1.215 8.764-1.609 5.263-.658 7.797-.738 8.655-.99.499-.153.397-.8 0-.848-5.644-.663-18.266 1.803-20.079 2.178-3.367.724-5.861.904-6.691.91h-7.848c-4.366-.006-6.256.472-6.554.53-.844.193-1.641.457-2.391.844-1.589.813-2.6 1.815-1.93 3.717.238.41.464.974.694 1.384.54 1.07 1.236 2.39 1.798 3.436.406.745.658 1.68.658 2.614l-.225 1.162c-.015.199-.503 1.056-.76.903a1.16 1.16 0 01-.129-.133 20.5 20.5 0 00-.982-1.32c-.114-.158-.203-.284-.243-.331-.406-.53.769-1.253.661-1.925-.222-1.333-2.186-3.883-3.662-5.1-.866-.711-1.667-1.655-2.436-2.526-.317-.434-.672-.792-.995-1.22-.281-.38-.413-.617-.528-1.08-.224-.926.334-1.488.933-1.963a7.538 7.538 0 011.587-.93c1.49-.612 4.985-1.23 7.054-1.5.687-.067 2.365-.266 3.621-.292 1.4 0 2.736.043 4.047.143 2.557.199 5.057.675 7.715.712 3.869.06 7.593-.18 11.347-.36 1.674-.08 3.439-.19 5.231-.34 2.747-.234 11.125-.13 12.362-.052.609.035 6.156.262 8.96.478a15.92 15.92 0 011.531.176c1.232-.026 2.454.028 3.66-.045 2.254-.143 4.516-.391 6.742-.569l3.359-.31c.426.001.802.001 1.135.172.461.234 1.822 1.578 1.808 2.12-.009.288-1.709.817-2.473 1.105zm-1.682 4.987c-.223.199-.816.264-1.098.356-.663.21-2.545 1.131-4.654 1.131-9.119 0-17.812-.784-26.61-1.337-1.202-.094-2.407-.195-3.608-.29-1.672-.118-3.346-.23-5.021-.345-.638-.045-1.279-.094-1.914-.138-.341-.026-.776-.15-1.11-.047-.122.021-.241.04-.362.056a1.573 1.573 0 00-.164.028c-1.191 0-.202-1.272.404-1.365.365-.054 1.028-.01 1.394 0 .82.004 3.418-.066 3.853-.085 2.563 0 4.826.01 7.391.01h4.52c.369-.028 7.638-.087 10.795-.136 2.397-.038 4.889.028 7.211-.08 1.359 0 2.718-.004 4.081-.007.341-.019 4.062-.107 4.37.08.452.272.992 1.759.522 2.169zm-4.542 4.247c-.369 1.047-.91 1.49-1.97 1.813-.298.08-.602.16-.905.237-.054.011-.113.018-.169.028l-.163.028c-.058.007-.112.018-.171.025-.061.01-.125.017-.191.031-.084.01-.164.014-.251.028l-.303.024-.275.03c-.082.01-.172.016-.254.03-.12.005-.242.012-.36.026-.202.007-.407.019-.609.026-3.345 0-6.467-.443-9.631-.743-2.051-.194-4.073-.55-6.104-.775-2.894-.318-5.752-.792-8.599-1.255l-7.076-1.11c-.58-.092-1.163-.183-1.749-.27-.315-.05-1.199-.182-1.525-.084-.807 0-.706-.696-.29-1.117.123-.127.275-.171.428-.24.976 0 2.283.179 3.216.251 2.259.176 4.516.35 6.772.523 6.66.426 13.336.963 20.059 1.276l5.442.2c1.331 0 2.663.004 3.994.004.254.011.512.045.679.232.186.213.084.546.005.782zm-6.607 6.401c-.306.204-.656.197-.983.347-.059.01-.113.02-.172.028-.051.012-.106.019-.162.028-.056.012-.113.019-.167.028-.058.01-.113.021-.171.029a7.63 7.63 0 01-.217.025c-.087.012-.169.019-.251.03-.082.01-.167.017-.249.029-.085.007-.167.016-.252.025l-.275.029c-.122.009-.24.016-.362.03a7.78 7.78 0 00-.362.025 9.51 9.51 0 01-.36.026c-.084.012-.167.02-.247.029-.114.011-.222.018-.333.028-.156.01-.32.018-.473.026a7.3 7.3 0 01-.254.028c-.916 0-1.763-.16-2.633-.27-1.687-.218-3.331-.513-4.969-.773a125.2 125.2 0 01-8.852-1.763c-2.389-.562-4.756-1.06-7.104-1.661-1.59-.405-3.183-.812-4.77-1.223-.571-.147-1.573-.28-2.019-.623-.261-.199-.398-.698-.452-1.011-.08-.439.299-.602.616-.722.795 0 1.321.373 2.029.542 1.622.28 3.253.554 4.88.833 3.502.583 7.01 1.162 10.571 1.618 3 .385 6.027.921 9.074 1.207 2.12.203 4.257.463 6.406.632.704.056 2.976-.014 3.394.335.529.436-.468 1.81-.881 2.09zm-6.08 3.242c-.153.338-.536.553-.792.834-.277.307-.477.687-.835.942-.23.157-.47.21-.714.335-.056.009-.108.016-.167.028-.106.007-.203.016-.308.026-.141.011-.292.018-.438.026-3.575 0-7.014-.802-10.244-1.512-4.445-.976-8.053-2.218-12.271-3.672-1.619-.576-6.906-2.134-7.124-2.689-.268-.677.853-.916 1.299-1.094.327-.142.652-.288.979-.43.354.023.608.164.916.273.325.101.649.197.971.298 1.526.398 3.054.794 4.579 1.194 3.282.841 6.59 1.579 9.958 2.308 2.104.456 4.262.922 6.411 1.28l4.802.773c.825.113 1.648.223 2.468.333.179.05.36.094.48.246.103.14.096.345.03.501zm-9.887 5.319c-.17.07-.339.145-.503.218-.057.011-.109.019-.163.028-.075.011-.151.018-.223.028-.075.012-.15.016-.224.03-.119.007-.236.017-.359.026l-.696.029c-.136.009-.277.016-.416.027-1.735 0-3.559.085-5.131-.203-1.853-.34-3.569-1.172-5.248-1.867a58.849 58.849 0 01-4.804-2.26l-3.251-1.63c-.679-.361-1.366-.72-2.047-1.08-.334-.171-.659-.375-1.021-.501-.479-.165-1.269-.403-1.309-.947-.024-.375 1.291-.834 1.667-.995.57.018 1.053.292 1.553.477 1.129.415 2.259.827 3.388 1.24 4.386 1.482 8.789 2.974 13.375 4.117 1.267.316 2.558.619 3.858.902.594.13 2.106.236 2.464.677.38.48-.525 1.412-.91 1.684zm-9.332 3.693c-.146.058-.292.115-.435.178l-.306.023c-1.723 0-3.46-.19-4.919-.736-1.495-.56-2.862-1.468-4.206-2.334-2.442-1.581-4.776-3.32-7.118-5.071-.252-.183-1.784-.888-1.906-1.359-.106-.424.717-1.047 1.026-1.25.06.002.109.007.167.007.064.02.13.037.193.053a493.9 493.9 0 002.285 1.307 150.74 150.74 0 007.457 3.83 94.74 94.74 0 005.602 2.468c.611.22 1.227.448 1.84.67.356.122.71.244 1.065.363a.714.714 0 01.322.272c.291.518-.665 1.33-1.067 1.579zm-9.066 2c-1.152 0-2.146-.361-3.169-.622-.66-.17-1.37-.323-1.956-.64-.731-.387-1.292-1.09-1.934-1.66-1.73-1.517-3.338-3.209-5.047-4.813a2.757 2.757 0 00-.612-.436c-.258-.133-.643-.14-.789-.43a.682.682 0 01-.021-.436c.114-.25.23-.499.341-.754.112-.283.173-.621.352-.869.101-.14.233-.213.376-.285.05 0 .09 0 .139.002.047 0 .092 0 .136.004.056.012.109.016.167.024 1.011.234 1.561 1.173 2.37 1.777 2.191 1.637 4.341 3.347 6.612 4.837.933.612 1.857 1.23 2.809 1.817.508.317 1.14.553 1.561 1.017.029.04.056.084.082.124a.514.514 0 01.036.078c.209.674-1.035 1.056-1.453 1.264zm-7.908.998c-1.069 0-2.642-.546-3.43-1.099-.608-.424-1.064-1.122-1.509-1.67-1.159-1.443-2.228-2.953-3.31-4.443-.174-.246-.348-.48-.585-.686-.254-.211-.616-.282-.74-.616-.237-.623.275-1.249.804-1.413.707.021 1.344.321 1.849.729.381.302.642.69.952 1.042.336.337.673.675 1.007 1.014 1.61 1.534 3.213 3.069 4.818 4.602.405.38 1.428 1.102 1.491 1.654a.41.41 0 01.005.077c-.019.582-.969.616-1.352.809zm-4.916 2.596c-.169.41-1.73 3.344-2.884 4.916-2.682 3.64-6.591 7.132-10.44 9.245a43.582 43.582 0 01-4.043 1.927c-.456 0-.653-.248-.263-.569.292-.245 1.845-.944 3.079-1.54 1.97-1.027 3.701-2.064 5.47-3.489 2.119-1.7 4.034-3.808 5.551-5.996 1.363-1.974 2.948-4.897 3.229-5.047.36.035.433.232.301.553zm-7.494-16.975c.406.356.545.939.846 1.365.369.525 1.328 1.635 1.274 2.23-.045.483-1.909 1.923-2.316 1.583-.011-.012-.021-.028-.039-.042a15.854 15.854 0 00-1.742-5.132c0-.07.018-.135.042-.192.324-.653 1.798.064 1.935.188zm10.874-13.458c-.59-.06-1.782-1.11-2.245-.185-.398.782 2.101 1.094 1.988 1.869-.089.649-.326.754-.902.754-.261.014-.877-.36-1.086-.438-.574-.265-1.933-1.34-2.445-.478-.506.853 2.946 2.01 2.854 2.675-.092.63-.726 1.127-1.206.963-.663-.16-2.786-2.642-3.749-1.668-.889.9 2.661 2.476 2.484 3.024-.301.92-1.109 1.195-2.235.262-.588-.487-1.514-1.393-2.043-.684-.651.876 1.225 1.98 1.389 2.272.412.738-.533 1.59-1.157 1.45-.578-.077-1.431-2.25-2.24-1.504-.62.57.896 1.926.738 2.467-.063.504-1.349 1.166-1.946.7-.82-.543 1.114-3.368-.785-6.03-.919-1.133-1.667-2.889-1.719-3.198-.072-.541-.032-1.471.316-1.935 1.33-1.778 7.367-1.658 9.946-1.778 1.727-.081 2.701.143 4.471.143.275.07.622.078.677.413.061.417-.257.812-1.105.906zm-3.586 8.775c-.153-.123-.188-.334-.16-.54.103-.808 1.229-1.185 1.843-1.218.543 0 1.887.815 2.221.981.501.234.997.469 1.495.703.452.206 1.112.391 1.423.822.352.482-.137 1.1-.544 1.351-.23.138-.564.368-1.504.398-.698 0-1.105-.4-1.632-.732-.693-.443-2.868-1.535-3.142-1.765zm-1.62 7.533c-.63.32-1.458-.047-2.017-.35-.804-.43-1.27-1.526-1.902-2.159-.28-.271-1.016-.831-1.025-.95-.091-.626.449-.823.919-.938.475 0 1.027-.058 1.415.118.405.187.71.656 1.035.978.67.668 1.453 1.24 2.028 1.984a.922.922 0 01-.453 1.317zm-1.534-5.27c-.166-.256-.129-.678.049-.937.325-.485 1.129-.263 1.648-.401.193.012.362.023.52.101.362.271.679.475 1.041.747.398.267.844.605 1.241.871.466.324.992.572 1.42.958.149.136.28.31.308.504.115.735-.846 1.124-1.311 1.134-.553 0-1.129.013-1.571-.212-.334-.17-3.143-2.463-3.345-2.765zm-3.077 18.21c-.799.425-2.701-.547-2.922-.805a.257.257 0 01-.071-.154 15.986 15.986 0 001.563-4.289.692.692 0 01.379-.196c.597-.076 1.84 5.056 1.051 5.445zm-.065-5.551c-.197-.337-.902-1.37-1.027-1.738a1.287 1.287 0 01-.047-.164 16.307 16.307 0 00-.017-2.054c.042-.112.102-.187.182-.199.512 0 1.386.199 1.741.51.294.255.442.64.651.956l1.082 1.52 2.51 3.361 1.15 1.478c.213.363.155.632-.163.883l-.195.026c-1.168 0-2.982-.433-3.777-1.13-.398-.353-.609-.77-.863-1.19l-1.227-2.259zm13.777-18.54c.607.206 2.003.712 2.25 1.033.15.194.244.482.103.74-.522.993-.994.831-2.047.855-.894 0-1.272-.375-1.982-.72-.381-.172-.757-.35-1.14-.526-.338-.148-.315-.19-.656-.338-.275-.093-.917-.309-1.116-.539-.506-.568.669-1.206 1.187-1.374.334-.09 2.212.466 3.401.869zm-1.43-6.16c.059-.906 2.468-.74 3.767-.82 1.262-.096 1.689-.222 2.822-.175.781.035.318 1.867-.117 2.253-.36.32-2.241-.372-3.207-.46-.651-.058-3.323.132-3.265-.798zm2.859 2.403c1.382.253 2.329.52 2.559.649.492.278.563.698.367 1.325-.176.542-.763.692-1.44.628a15.042 15.042 0 01-2.265-.377l-1.964-.506c-.407-.105-.91-.178-1.235-.436-.312-.25-.267-.742-.133-1.103.159-.438.571-.681.977-.672.402.026 1.785.246 3.134.492zM114.34 53.854c-.287-.296-3.185-4.6-3.321-4.785-.111-.148-.08-.4.023-.577 5.282-1.989 9.554-5.275 12.076-9.308.425-.117 1.17.52 1.495.68.564.276 1.276.555 1.972.363.729-.2 1.025-1.106 1.596-1.366.31-.124 2.541.698 2.579 1.244-.022.45-1.387 2.356-2.917 4.4-2.682 3.59-6.009 6.018-9.725 8.081a24.28 24.28 0 01-2.494 1.195l-.717.281c-.223 0-.426-.059-.567-.208zm-1.015 4.576c-.463.215-1.648-.213-1.923-.53-.362-.414-.505-1.011-.731-1.56-.646-1.653-2.145-5.651-2.28-6.087-.073-.232-.108-.6.028-.913.464-.13.924-.265 1.373-.415.202.125.362.3.489.431.357.38 2.288 4.188 3.129 5.652.27.485.667 1.248.752 1.822.068.504-.282 1.342-.837 1.6zm-4.344 1.144c-.489.162-1.61-.407-1.843-.756-.31-.455-.381-1.066-.539-1.637-.436-1.72-1.438-5.87-1.518-6.317a1.45 1.45 0 01.087-.801 31.465 31.465 0 001.53-.298c.158.138.275.31.37.434.31.422 1.758 4.433 2.414 5.991.214.513.51 1.32.519 1.9.012.51-.439 1.301-1.02 1.484zm-3.639-.456c-.075.49-.644 1.174-1.236 1.253-.491.072-1.474-.668-1.641-1.038-.216-.49-.181-1.088-.233-1.66-.129-1.724-.383-5.877-.383-6.322 0-.262.087-.667.362-.918.369-.03.736-.063 1.1-.106.294.174.447.504.558.727.223.454.93 4.55 1.299 6.15.114.532.261 1.354.174 1.914zm-4.484.395c-.138.478-.782 1.087-1.38 1.096-.498.007-1.386-.84-1.502-1.23-.16-.512-.044-1.103-.03-1.68.084-1.724.334-5.877.39-6.316.03-.252.157-.623.435-.84.207.004.409.004.606.004.181 0 .363 0 .541-.005.268.214.376.555.461.785.167.483.371 4.635.536 6.27.049.537.098 1.375-.057 1.916zM97.203 44.99c-4.02-.32-8.54-1.613-11.546-3.952-.37-.284-.756-.69-.989-1.072-.08-.131-.059-.339-.174-.446.01-.021.023-.038.025-.062.197-.29.32-.637.56-.91.18-.207.949-.943 1-1.134.013-.387.019-.77.025-1.159v-9.312c0-.451.002-.904.007-1.356.023-.335.11-.698.068-1.078-.03-.248-.368-.475-.566-.595-.4-.236-1.199-.971-1.349-1.4-.045-.131-.005-.31.037-.427.108-.29.388-.498.547-.762a.471.471 0 00.044-.069c.444-.545 1.084-.98 1.641-1.362 2.196-1.502 4.79-2.556 7.487-3.055.93-.175 1.892-.295 2.854-.421.22-.026.535.046.72-.062 1.284 0 2.565.004 3.856.006 2.653.124 5.202.706 7.393 1.797.78.389 1.613.81 2.25 1.468.202.206.43.365.635.583.9.96 1.432 2.052 1.672 3.357.038.218.158.672-.019.861 0 .312.061.841-.136 1.047 0 .162-.031.366-.143.471a.502.502 0 01-.137.366c0 .712-1.354 2.038-1.915 2.51-.268.229-.844.455-1.02.718-.231 0-.473.24-.647.359 0 .058.111.061.156.08 2.384 1.017 4.524 3.656 4.564 6.394.004.288.091.901-.087 1.102 0 .247.025.615-.137.775 0 .17-.026.386-.137.495 0 .338-.201.598-.342.868-.71 1.394-1.916 2.463-3.258 3.252-.383.188-.769.377-1.156.564-.153.07-.352.092-.46.242-.219 0-.634.115-.778.272-.144 0-.405.036-.497.136-.143 0-.381.045-.472.143-.151 0-.404.03-.498.136-.2 0-.512 0-.641.136-.129 0-.28.005-.36.088-.207 0-.646 0-.778.142-.225 0-.927.01-1.056.136-.275 0-1.275-.002-1.412.136-1.61 0-3.242.119-4.831-.006zm-.56 12.566c-.04.537-.122 1.373-.359 1.884-.214.449-.945.95-1.533.866-.498-.068-1.234-1.05-1.29-1.45-.075-.534.127-1.096.23-1.663.355-1.69 1.258-5.754 1.38-6.179.059-.21.207-.491.44-.678.42.044.846.084 1.271.117.217.246.268.594.31.826.092.504-.36 4.633-.448 6.277zm-4.304-.39c-.132.528-.357 1.334-.682 1.8-.287.402-1.093.77-1.657.585-.475-.154-1.037-1.244-1.022-1.651.018-.537.317-1.056.523-1.598.64-1.604 2.236-5.447 2.431-5.846.101-.197.294-.454.564-.602.367.082.745.15 1.127.214.265.297.253.723.258 1 0 .51-1.164 4.5-1.542 6.099zm-5.17.66c-.348.359-1.206.593-1.734.323-.443-.227-.823-1.39-.746-1.791.101-.525.477-.994.766-1.495.885-1.484 3.064-5.03 3.32-5.396.105-.15.282-.33.503-.44.411.13.832.25 1.25.364.189.329.11.723.073.982-.075.502-1.852 4.266-2.477 5.788-.212.498-.565 1.26-.955 1.665zm-3.066-3.74c-.513.18-2.48-1.075-3.188-1.46-3.735-2.013-7.269-4.712-10.002-8.22-.865-1.103-3.308-3.935-3.28-5.104.024-.824 2.725-1.127 3.158-1.108.736.07.968 1.047 1.836 1.253.55.132 1.186-.163 1.62-.412.279-.161.67-.48 1.04-.44 2.492 4.352 6.994 7.896 12.624 9.964l.033.068a.599.599 0 01-.094.49c-.296.337-3.162 4.829-3.747 4.97zm-.728 2.173c-.66.06-3.57-1.447-4.105-1.715-3.498-1.791-6.748-4.585-9.44-7.733-.712-.83-1.286-1.738-1.885-2.624-.698-1.028-2.275-3.59-2.395-3.984-.069-.225-.154-.662.09-.747.224-.13.429.024.575.263.28.452 1.384 2.646 2.217 3.843.88 1.274 1.532 2.377 2.505 3.443a35.082 35.082 0 006.951 5.874 29.208 29.208 0 003.334 1.874l1.986.93c.136.087.282.185.327.351a.178.178 0 01-.16.225zM64.926 36.922c.005-.744 5.033-5.663 5.534-6.417.672-.928 1.547-1.694 2.362-1.57a.545.545 0 01.413.184c-.06.536-.089 1.082-.089 1.63l.007.252-.02.057c-.231.822-.316.632-.873 1.708-.846 1.627-1.77 3.956-2.316 4.206-.794.366-2.005.32-2.879.539-1.25.316-2.139-.008-2.139-.589zm-5.985-.08c-.564 0-2.102-.231-1.766-1.158.23-.476 1.282-1.146 1.745-1.465 5.388-3.756 7.649-6.55 8.042-6.502.427.066 1.048.19 1.483.251.566.073 1.572-.26 1.892.223.026.054-.037.67-.122.79-.188.266-6.243 6.33-6.866 6.693-1.357.785-4.28 1.157-4.408 1.169zm-2.793-2.672c-1.864 1.108-6.164 1.523-6.942 1.352-.522-.115-1.57-.965-1.229-1.513.204-.335 14.396-8.083 15.016-8.257.585-.185 2.774.073 3.028.568.223.435-1.785 1.47-2.4 1.995-.506.42-6.93 5.45-7.473 5.855zm-8.945-1.894c-1.773.773-4.487.347-5.853.283-.586-.028-1.169-.016-1.67-.196-.319-.12-.582-.354-.857-.555-.226-.17-.496-.42-.442-.74.026-.18.16-.324.317-.406.534-.295 1.25-.391 1.85-.56.96-.285 1.92-.578 2.877-.868 3.611-1.2 7.22-2.443 10.68-3.91 1.234-.513 4.334-2.298 5.195-2.335.975 0 2.743-.04 2.826 1.054.051.694-3.717 2.445-4.575 2.926-1.82.981-8.717 4.6-10.348 5.307zm-18.059-3.933c-.218-.333-.982-1.556-.723-1.787.399-.338 1.614-.258 2.188-.343 1.87-.273 3.707-.522 5.522-.906 6.288-1.332 19.555-5.432 20.127-5.673.216-.06.439-.124.655-.183.527 0 1.04.078 1.164.607.049.209.139 1.358-.223 1.82-.353.447-17.584 6.458-18.755 6.8-2.893.76-9.4.486-9.955-.335zM26.9 24.777c-1.445 0-5.18-.754-5.63-1.088-.366-.277-.547-.785-.73-1.17-.426-.891.166-1.442 3.52-1.28 1.834-.146 3.621-.352 5.412-.55 2.767-.308 13.992-1.98 16.845-2.5 1.806-.314 3.606-.626 5.412-.942.832-.15 2.76-.712 3.084-.311.371.461.615 1.367.317 1.567-.388.255-15.515 4.312-17.5 4.796-1.277.314-8.99 1.537-10.73 1.478zm-10.692-6.093c-.553-.153-1.321-.272-1.742-.677-.226-.216-.486-1.394-.252-1.593.454-.384 4.826-.337 5.16-.363 1.803-.026 22.485-1.307 23.67-1.403 2.214-.14 8.295-.723 9.127-.808.259 0 .5.005.71.098.282.13 1.413 1.024 1.439 1.317.014.131-.069.19-.153.271-.588 0-32.924 4.108-33.046 4.118-1.864 0-3.307-.51-4.913-.96zm-2.466-4.33c-.63-.133-3.077-1.271-3.722-1.564-.902-.466-1.184-1.32-1.135-1.69.061-.507.263-.737.724-.91.846 0 34.34.48 37.468.48.338-.002 4.878-.414 5.294-.258.197.08.552.303.585.527.118.785-1.235 1.158-1.733 1.385-.058.009-36.899 2.154-37.481 2.03zm61.057 3.398c-.332 1.395-.137 2.634-.466 3.438-.298.503-1.377.365-1.622-.312-.165-.897 1.498-2.162.6-2.611-.858-.426-1.298 1.171-1.721 1.53-.17.145-.3.28-.545.28-.694 0-1.322-.346-.899-1.103.163-.297.466-.58.739-.82.32-.28.794-.723 1.046-1.06a1.1 1.1 0 00.117-1.01c-.094-.227-.39-.267-.627-.359-.896-.339-2.415 2.23-2.955 2.47-.503.24-1.19.09-1.368-1.04-.087-.558 2.508-2.425 2.74-2.647a.83.83 0 00.21-.832c-.153-.51-.652-.623-1.222-.475-.414.107-.715.356-1.13.808-1.113 1.216-2.775 2.611-3.433 1.154-.082-.173.131-.88.234-1.011.365-.45 3.377-1.82 2.716-2.764-.745-1.073-2.579.555-3.167.83-.216.076-1.398 1.222-1.998-.029-.465-.98 2.45-1.464 1.885-2.27-.498-.714-1.54.417-2.392.403-.725-.018-.788-.696-.722-1.122.051-.346.352-.421.7-.421 1.815 0 3.583.032 5.362.119 2.647.122 5.118.192 7.426.958.783.26 1.627.61 2.252 1.178.381.342.736.804.663 1.363a1.947 1.947 0 01-.023.11c-.127.532-.463.881-.74 1.326-.436.754-1.338 2.668-1.66 3.919zm-6.485 6.168c.244-.26.486-.525.735-.79.337-.36.863-1.037 1.289-1.283.402-.23 1.826-.002 1.993.307.376.682-.188.937-.571 1.274-.186.162-.929 1.2-1.15 1.532-.188.297-.376.642-.655.876-.283.239-.588.267-.912.417-.403.117-1.012-.091-1.378-.346-.884-.62.153-1.484.649-1.987zm-5.005-1.189c.144-.34.837-.944 1.12-1.178.592-.478 2.195-2.108 2.745-2.108.858 0 2.724.19 1.986 1.49-.152.267-2.703 2.543-3.1 2.84-.543.406-1.768.595-2.168.298-.434-.32-.853-.677-.583-1.342zm-3.868-3.224c.264-.344 3.952-2.63 4.493-2.655.623-.014 2.527.604 2.003 1.508-.205.349-.933.532-1.25.754-.624.502-1.099.858-1.721 1.361-.304.234-.565.508-.89.688-.166.066-.333.132-.498.195-.608 0-1.511-.011-1.916-.417-.173-.173-.237-.407-.307-.632-.09-.284-.094-.567.086-.802zm-3.06-4.02c.354-.388.97-.5 1.45-.657 1.161-.39 2.259-.916 3.493-1.155.736-.124 2.376 1.075 1.512 1.963-.255.262-.654.311-.964.478l-2.718 1.459c-.2.08-.674.175-.982.185-.553 0-1.373-.328-1.683-.68-.156-.172-.254-.503-.304-.723-.077-.33-.02-.633.195-.87zm-2.868-5.463c-.393-.428-.896-1.679-.11-1.712 1.127-.05 1.924.028 3.182.124 1.305.08 3.242-.21 3.3.719.038.642-2.696.635-3.345.694-.963.086-2.508.747-3.027.175zm.267 2.503a.933.933 0 01.357-.56c.426-.295 1.116-.323 1.64-.415 1.34-.248 2.669-.442 3.955-.838.387-.091.801.096 1.067.405.256.307.47.703.146 1.061-.296.326-.832.393-1.244.513-1.185.382-2.294.787-3.569 1.094-.803.138-2.042-.398-2.237-.63-.132-.155-.162-.412-.115-.63zm21.015 25.139c-.172.316-1.9.97-2.833.185-.527-.648.712-5.178 1.31-5.103a15.953 15.953 0 001.523 4.918zm-1.415-9.57c-.336.195-1.182-.295-2.05-.657-1.173-.5.576-1.49 1.185-2.385.329-.485.874-1.764 1.293-2.096.435-.108 1.3-.438 1.46-.014a15.958 15.958 0 00-1.888 5.153zM5.1 6.67c-.329-.145-1.297-.894-1.238-1.042.186-.475 1.238-2.267 2.064-2.332 1.749.163 3.904.395 5.707.475 0 0 12.917-.143 13.298-.171 1.947-.152 6.57-.352 8.569-.387 1.107-.018 2.98-.089 4.034-.042 3.578 0 6.742.3 10.197.466 1.775.08 3.493.118 5.268.2 1.789.084 3.624.22 5.444.22 3.262 0 6.337-.211 9.514-.359l2.441-.007c1.524-.026 3.207-.089 4.747.058.959.09 1.928.097 2.856.204 1.262.146 3.444.403 4.36.815A5.477 5.477 0 0184.15 6.07c.623.684 1.552 1.752 1.032 2.558-.214.405-.809.995-1.119 1.351-.414.461-3.646 3.136-4.45 4.275-.729 1.014-.94 1.777-1.39 2.573-.612 1.024.062 1.785-.163 2.385a20.467 20.467 0 00-1.83 2.218c-.12.066-.225.087-.31.026-.555-.387-.447-1.214-.313-2.286.06-.809.71-2.478.948-2.91.456-.857 1.927-2.655 2.045-2.981.943-2.632-1.683-4.26-3.679-4.91-.663-.215-1.326-.46-2.022-.587-2.571-.464-5.326-.412-8.1-.499-1.907-.058-3.916-.133-5.858-.133l-4.192-.01c-1.337-.105-2.691-.183-3.939-.477-2.14-.506-3.933-.97-6.072-1.441-1.82-.398-3.784-.745-5.729-.867-1.323-.082-3.627-.227-5-.227-1.01 0-8.498-.077-9.605.23-.383.075-.322.794-.063.857 1.438.41 6.78.527 10.32.405 2.08.101 4.405.358 6.372.64 2.546.36 4.897.822 7.257 1.566l2.52.656c.416.13.959.406.39.794-1.558 0-3-.302-4.58-.325-3.977 0-9.715-.12-13.704-.12-.416-.025-19.755-.231-22.064-.363-2.568-.147-4.884-1.375-5.75-1.799zm108.13 2.574c.327.583.762.95 1.631 1.97 1.759 2.056 4.295 3.785 5.445 5.698.15.244.388.654.367.944-.02.25-.449.925-.999.464-1.514-1.253-2.939-2.413-4.535-3.345-3.996-2.337-8.588-3.635-13.566-3.848-5.633-.241-9.998.667-10.858.937-3.465 1.073-6.332 2.028-9.389 4.41-.216.171-1.117.735-1.5.225-.148-.201-.04-.857.071-1.002 1.453-1.947 3.554-2.834 5.202-4.577.433-.461 1.678-1.532 1.719-3.13.033-1.304-1.256-1.267-.656-2.206.258-.393 7.195-2.216 13.665-2.216 7.232 0 13.606 2.272 13.765 2.933.207.83-1.436.932-.362 2.743zM84.846 3.612c.864-.429 7.272-2.474 14.848-2.474 8.322 0 15.553 2.687 15.974 3.029.573.463.051 1.328-.595 1.2-.639-.127-7.198-2.9-15.291-2.9-8.094 0-13.747 2.14-14.246 2.43-.592.343-1.154-.128-1.154-.128s-.392-.73.463-1.157zm115.056 1.696s-2.546-3.04-2.94-3.123c-.905-.187-9.041.987-14.3.987-5.263 0-14.748-.797-18.653-.797-3.907 0-16.105.876-21.843.876-5.74 0-7.966-.876-12.191-.876-2.625 0-8.655.166-12.371 1.497C111.577.952 106.095 0 99.59 0c-5.895 0-12.059 1.246-17.653 3.654-5.823-2.019-19.773-.82-22.821-.752-3.491.08-17.934-.79-21.345-.79-3.41 0-10.463.11-15.782.474-8.099.555-17.255-.232-18.36-.506a1.142 1.142 0 00-.933.192C2.46 2.586 0 5.352 0 5.352l.24.794 5.79 2.923-.793 3.797 5.638 2.532s0 3.157.312 3.553c.318.4 5.955 1.82 5.955 1.82s.561 3.691.951 4.03c.66.586 6.59 1.19 6.59 1.19s1.822 3.32 2.614 3.635c.794.317 7.143 1.268 8.33.949 0 0 .527 2.764 1.65 3.262 1.202.53 8.11.3 8.11.3s.859 2.724 2.234 3.15c1.286.396 7.29-1.177 7.29-1.177s.876 2.019 1.748 2.373c1.33.54 6.18-1.174 6.18-1.174 2.494 10.238 10.802 17.482 20.585 21.27l1.369 2.74 3.215-1.214 1.681 2.57 2.936-1.59 2 2.417 2.638-1.902 2.325 2.15 2.315-2.213 2.645 1.927 1.991-2.412 2.941 1.595 1.685-2.548 3.23 1.234 1.331-2.743c9.069-3.506 17.465-10.807 20.194-20.063.849.377 2.459.925 3.79.982 0 0 1.516-.547 2.132-2.458 0 0 5.263 1.638 6.225 1.345 0 0 .884-.047 1.699-2.73.539.247.985.116 1.787.29 4.097.887 5.884.407 5.884.407s.917-.155 1.642-3.593c.365.054.626.098.901.082 0 0 6.084.173 7.137-.352 0 0 .961-.241 1.307-3.686 2.508.374 4.765.538 6.591.33 0 0 2.046-.7 2.833-4.708 1.38-.087 5.449-.356 5.955-.953 0 0 1.001-.459 1.001-4.06 1.591-.102 4.179-.435 5.113-1.423 0 0 .986-1.138.559-3.881 3.758-.785 5.063-2.005 5.063-2.005-.026-1.325-1.196-3.764-1.196-3.764s4.205-1.616 5.228-2.436l.331-.606z" fill="#000" fill-opacity=".7"/></svg>